<svg xmlns="http://www.w3.org/2000/svg" viewBox="0 0 92 82" fill="none">
  <path d="M28 67c-2-12 9-25 19-27 11-1 24 12 22 24-2 10-12 8-21 8-8 1-18 5-20-5Z" stroke="#607d39" stroke-width="3.4" stroke-linecap="round" stroke-linejoin="round"/>
  <path d="M15 39c-3-8 0-15 6-16 7 0 10 8 8 15-2 8-11 10-14 1ZM31 21c-1-9 4-15 10-14 7 1 9 10 5 17-4 6-14 5-15-3ZM52 20c1-8 7-13 13-10 6 3 6 12 1 18-5 5-14 1-14-8ZM70 38c3-7 9-10 14-6 5 5 2 13-4 17-7 3-13-4-10-11Z" stroke="#607d39" stroke-width="3" stroke-linecap="round" stroke-linejoin="round"/>
</svg>
