<svg xmlns="http://www.w3.org/2000/svg" viewBox="0 0 1200 58" fill="none" preserveAspectRatio="none">
  <path d="M5 31c117-25 205 21 322 0 121-22 209 18 332-1 128-20 229 22 362-1 71-12 122-9 174 3" stroke="#287b82" stroke-width="3" stroke-linecap="round" stroke-dasharray="3 13" opacity=".62"/>
  <path d="M578 28c-8-10-21-5-19 6 2 9 13 15 20 20 7-7 18-14 17-23-1-11-13-12-18-3Z" stroke="#e95f3c" stroke-width="3" stroke-linecap="round" stroke-linejoin="round"/>
  <path d="M91 12c-6 4-9 8-11 14m22-13c-4 6-5 11-5 16m1012-14c5 5 7 10 8 15m10-19c-2 7-2 12-1 17" stroke="#d99522" stroke-width="3" stroke-linecap="round"/>
</svg>
